<svg xmlns="http://www.w3.org/2000/svg" viewBox="0 0 622.43 189.79"><defs><style>.cls-1{fill:#231f20;}.cls-2,.cls-3{fill:none;stroke-miterlimit:10;stroke-width:8px;}.cls-2{stroke:#000;}.cls-3{stroke:#231f20;}</style></defs><g id="Capa_2" data-name="Capa 2"><g id="Layer_2" data-name="Layer 2"><polygon class="cls-1" points="216.91 77.69 230.93 101.41 238.78 89.55 238.78 112.51 245.12 112.51 245.12 75.74 238.95 75.74 231.02 88.57 223.25 75.74 216.91 75.74 216.91 77.69"/><path class="cls-1" d="M254.81,76.2v9.66a.42.42,0,0,0,.35.46h5.47a.42.42,0,0,0,.35-.46V76.2a.42.42,0,0,0-.35-.46h-5.47A.42.42,0,0,0,254.81,76.2Z"/><rect class="cls-1" x="254.81" y="89.01" width="6.18" height="23.5"/><polyline class="cls-1" points="216.91 96.97 216.91 112.51 222.59 112.51 222.59 96.97"/><polyline class="cls-1" points="531.53 99.6 531.53 112.01 537.21 112.01 537.21 99.6"/><rect class="cls-1" x="298.71" y="75.74" width="7.18" height="7.83"/><polygon class="cls-1" points="307.56 75.74 307.56 112.51 313.57 112.51 313.57 83.57 322.75 83.57 322.75 75.74 307.56 75.74"/><rect class="cls-1" x="330.27" y="75.74" width="21.87" height="7.83"/><rect class="cls-1" x="330.27" y="90.97" width="18.87" height="7.62"/><rect class="cls-1" x="330.27" y="105.55" width="21.87" height="6.96"/><rect class="cls-1" x="600.56" y="75.23" width="21.87" height="7.83"/><rect class="cls-1" x="600.56" y="90.47" width="18.87" height="7.62"/><rect class="cls-1" x="600.56" y="105.04" width="21.87" height="6.96"/><rect class="cls-1" x="501.57" y="75.89" width="21.87" height="7.83"/><path class="cls-1" d="M501.57,91.12v7.61h17.69a1.38,1.38,0,0,0,1.17-1.52V91.12Z"/><rect class="cls-1" x="501.57" y="105.7" width="21.87" height="6.96"/><path class="cls-1" d="M360.4,93v19.49h5.38V100l6.67-.1,5.95,12.57h6.1l-5.91-13.15s2.61-1.3,4.23-6.34a18.22,18.22,0,0,0,.29-9.49,15.51,15.51,0,0,0-2.21-4.36,44.64,44.64,0,0,0-3.25-3.43H360.4v7.83h16.07a7.23,7.23,0,0,1,1.28,5,6.43,6.43,0,0,1-1.92,4Z"/><path class="cls-1" d="M407.22,92.52V112h5.38V99.54l6.67-.1L425.21,112h6.11L425.4,98.86s2.61-1.31,4.23-6.34a17.72,17.72,0,0,0,.3-9.49,16.85,16.85,0,0,0-2.21-4.36c-1-1.17-3.26-3.44-3.26-3.44H407.22v7.84h16.07a7.28,7.28,0,0,1,1.28,5,6.35,6.35,0,0,1-1.93,4Z"/><rect class="cls-1" x="440.08" y="75.23" width="20.81" height="7.76"/><path class="cls-1" d="M440.08,90.22v7.54h17.69a1.23,1.23,0,0,0,1-1.35V90.22Z"/><rect class="cls-1" x="440.08" y="105.09" width="20.81" height="6.92"/><path class="cls-1" d="M474.39,83l5.7,18.75,8.2-26.51H495L483.39,112h-6.27L468,83.27a10.34,10.34,0,0,1-.49-3.2V75.23h14.3l.07,6.28c0,.82-.5,1.48-1.12,1.48Z"/><polygon class="cls-1" points="531.53 75.89 537.21 75.89 550.08 99.13 550.08 75.23 555.9 75.23 555.9 112.01 549.79 112.01 531.13 76.84 531.13 75.89 531.53 75.89"/><path class="cls-1" d="M565.41,75.89h6.1v24.45a6.21,6.21,0,0,0,2.08,4.08,5.89,5.89,0,0,0,3.18,1.28V113a35.88,35.88,0,0,1-4.76-1.57,13,13,0,0,1-3.32-2.69,9.86,9.86,0,0,1-1.66-2.59,14.67,14.67,0,0,1-1.5-4l-.12-2.19Z"/><path class="cls-1" d="M590,75.89h-5.45v24.45a6.59,6.59,0,0,1-1.86,4.08,4.93,4.93,0,0,1-2.84,1.28V113a29.7,29.7,0,0,0,4.25-1.57,11.89,11.89,0,0,0,3-2.69,10,10,0,0,0,1.49-2.59,15.83,15.83,0,0,0,1.33-4L590,100Z"/><path class="cls-1" d="M7.44,112.59l56-.41a.77.77,0,0,0,.54-.22l40.28-37.41a.82.82,0,0,1,.55-.22H143.2a.78.78,0,0,0,.61-.28L177,34.64a.78.78,0,0,0-.62-1.28H171a.79.79,0,0,1-.8-.75l-.17-4.51a.78.78,0,0,1,.8-.81h16.32a.79.79,0,0,1,.8.78V43.81a.79.79,0,0,1-.83.78l-4.39-.17a.79.79,0,0,1-.77-.78V41a.8.8,0,0,0-1.41-.49l-33.2,39.89a.8.8,0,0,1-.62.28l-39.75.3a.79.79,0,0,0-.54.22L66.32,118.72a.82.82,0,0,1-.55.22l-58.32.4a.78.78,0,0,1-.8-.78v-5.19A.78.78,0,0,1,7.44,112.59Z"/><path class="cls-1" d="M43.3,124.31h4.89a.62.62,0,0,1,.63.6v16.57a.62.62,0,0,1-.63.61H43.3a.62.62,0,0,1-.62-.61V124.91A.61.61,0,0,1,43.3,124.31Z"/><path class="cls-1" d="M79.37,121.25h4.89a.68.68,0,0,1,.68.66v40.44a.68.68,0,0,1-.68.67H79.37a.67.67,0,0,1-.68-.67V121.91A.67.67,0,0,1,79.37,121.25Z"/><path class="cls-1" d="M115.24,107h5.85a.43.43,0,0,1,.44.42v55.2a.43.43,0,0,1-.44.42h-5.85a.42.42,0,0,1-.43-.42V107.4A.42.42,0,0,1,115.24,107Z"/><path class="cls-1" d="M121.68,100V92.78a.48.48,0,0,1,.49-.48h29.36a.48.48,0,0,1,.49.48V127a.48.48,0,0,0,.49.48h5.26a.48.48,0,0,0,.49-.48L157.58,86a.48.48,0,0,0-.48-.47H115.46A.48.48,0,0,0,115,86V99.87a.48.48,0,0,0,.48.48l5.74.1A.48.48,0,0,0,121.68,100Z"/><path class="cls-1" d="M48.82,106.14V63.93a.84.84,0,0,1,.85-.83H77.83a.85.85,0,0,1,.86.83v20.7a.84.84,0,0,0,.85.83h4.54a.84.84,0,0,0,.86-.83V46.44a.84.84,0,0,1,.85-.84H114a.84.84,0,0,1,.86.84v21.4a.85.85,0,0,0,.88.84l5-.13a.84.84,0,0,0,.84-.83V40a.86.86,0,0,0-.86-.84H79.54a.85.85,0,0,0-.85.84V55.29a.84.84,0,0,1-.87.83L43.54,55.8a.85.85,0,0,0-.86.84v49.5a.85.85,0,0,0,.85.84H48A.86.86,0,0,0,48.82,106.14Z"/><path class="cls-1" d="M167.27,66.58l4.87-2.1a.46.46,0,0,1,.62.24,28.86,28.86,0,0,1,2.14,12,.45.45,0,0,1-.46.43l-5,.1a.45.45,0,0,1-.47-.48,18.68,18.68,0,0,0-.3-4.91A18.49,18.49,0,0,0,167,67.2.45.45,0,0,1,167.27,66.58Z"/><path class="cls-1" d="M175.82,55.59l4-2.78a.49.49,0,0,1,.7.14,47.93,47.93,0,0,1,4.6,11.14,47.38,47.38,0,0,1,1.65,12.67.48.48,0,0,1-.48.46l-4.75,0a.48.48,0,0,1-.49-.47,41.69,41.69,0,0,0-1.26-10.31,42.41,42.41,0,0,0-4.13-10.3A.45.45,0,0,1,175.82,55.59Z"/><path class="cls-1" d="M282.61,83.18c2.24-.32,3.14.36,4,1.67a6.89,6.89,0,0,1,.82,4.05H293a14.81,14.81,0,0,0-2.23-9,9.05,9.05,0,0,0-8.12-4.2Z"/><path class="cls-1" d="M275.94,99.39a6.77,6.77,0,0,0,1.37,4.87c1.19,1.33,2,1.2,3.58,1.07.06,2.11-.06,4.75,0,6.85-.61,0-5.26.57-7.89-2.82a15.43,15.43,0,0,1-2.94-10Z"/><path class="cls-1" d="M280.19,75.86c-.87,0-4.69-.1-7.37,2.91a11.15,11.15,0,0,0-2.68,6.1c-.11.92-.59,5.28,2,8.14a11.49,11.49,0,0,0,8.07,4.09c2.9.44,7.67.15,7.63,5.2,0,3.29-4.68,3-4.68,3l0,6.94c4.12,0,6.67-1.17,8.08-3a11,11,0,0,0,2-8.06,14.13,14.13,0,0,0-2.19-5.85c-3.75-5.69-9.19-4.51-10.86-4.72-1.27-.16-4.76-.31-4.47-4.45.3-3.21,4.53-2.85,4.53-2.85Z"/><path class="cls-2" d="M163.07,33.8C150.89,16.46,119.42,3.39,97.25,4c-42.76,1.21-66.72,30.69-68,32.18C12.19,56.5,11.84,78.8,11.13,83.29c0,.09-.28.16-.38.15l-6.66-.1C3.65,83.37,4.9,85.67,6,87l8.91,12.73a.59.59,0,0,0,1,0L26,86.82c1.43-1.7,2.63-3.29,1.5-3.31l-5.4-.17c-.14,0-.61,0-.6-.13.31-4.3,5.82-61.87,71-67.72a70.59,70.59,0,0,1,63.74,28.24"/><path class="cls-3" d="M13.8,127.52c18,49.81,62.87,58.79,85,58.24,42.77-1,66.44-30.36,67.71-31.85,17.17-20.23,16.51-42.76,17.23-47.25,0-.09.29-.16.38-.15l6.66.13c.44,0-.79-2.34-1.9-3.67l-8.87-12.75a.59.59,0,0,0-1,0L169,103.07c-1.44,1.69-2.64,3.28-1.52,3.31l5.4.19c.14,0,.62,0,.6.13-.32,4.3-7.4,62.18-72.62,67.79-41.5,2.11-70.63-27.4-74.21-48.07"/></g></g></svg>